<?xml version="1.0" standalone="no"?>
<!DOCTYPE svg PUBLIC "-//W3C//DTD SVG 20010904//EN"
 "http://www.w3.org/TR/2001/REC-SVG-20010904/DTD/svg10.dtd">
<svg version="1.0" xmlns="http://www.w3.org/2000/svg"
 width="666.000000pt" height="182.000000pt" viewBox="0 0 666.000000 182.000000"
 preserveAspectRatio="xMidYMid meet">

<g transform="translate(0.000000,182.000000) scale(0.100000,-0.100000)"
fill="#000000" stroke="none">
<path d="M324 1730 c-126 -63 -247 -232 -261 -364 -8 -76 28 -152 94 -195 45
-30 103 -42 103 -20 0 6 -12 31 -26 55 -64 109 -28 310 74 417 20 20 39 37 44
37 4 0 9 -225 10 -499 3 -466 4 -500 21 -519 38 -42 132 -35 141 10 24 112
124 500 156 606 47 155 109 322 120 322 4 0 5 -183 2 -407 -4 -362 -3 -415 12
-465 40 -137 163 -118 275 43 l50 70 19 -43 c60 -136 233 -194 374 -125 77 38
133 103 221 257 l73 128 32 -100 c38 -116 45 -92 -70 -214 -69 -73 -78 -90
-56 -112 26 -26 54 -11 126 65 l73 77 44 -51 c67 -76 137 -100 212 -72 34 12
96 71 126 118 l21 34 18 -44 c22 -51 62 -97 98 -111 14 -5 47 -10 74 -9 61 0
113 33 159 100 l33 50 24 -46 c13 -25 39 -57 59 -71 30 -24 44 -27 110 -27 67
0 81 3 118 28 23 16 54 46 69 68 l27 40 13 -36 c24 -70 74 -105 152 -105 62 0
114 35 162 110 l33 52 13 -31 c37 -88 98 -131 184 -131 61 0 110 21 156 66 17
18 35 30 38 27 21 -22 -4 -57 -128 -178 -103 -99 -141 -143 -160 -185 -57
-121 -20 -225 93 -265 90 -31 176 -10 244 60 68 70 97 188 97 395 l0 124 44
46 c54 55 156 197 156 216 0 8 15 45 33 82 19 37 44 93 56 125 l23 57 60 0
c57 0 60 -1 55 -22 -20 -83 -29 -175 -25 -272 4 -100 7 -117 33 -165 39 -72
83 -103 148 -109 44 -3 58 0 94 25 23 15 59 50 79 76 l37 48 12 -28 c17 -40
62 -91 97 -109 39 -20 113 -20 166 1 41 17 122 95 122 119 0 6 13 -13 28 -43
31 -62 79 -94 142 -93 53 1 90 22 144 84 l46 53 0 -52 c0 -45 4 -55 25 -69 34
-22 124 -22 140 0 7 9 15 68 18 133 6 134 33 253 79 352 l31 66 8 -60 c4 -33
12 -118 18 -188 18 -216 40 -262 126 -262 24 0 46 3 50 7 4 4 9 35 12 70 7
100 39 245 75 343 l33 90 7 -199 c8 -220 21 -287 67 -338 68 -76 174 -7 292
189 55 92 61 128 19 128 -20 0 -34 -15 -77 -85 -61 -100 -91 -127 -121 -111
-11 6 -24 21 -28 33 -5 13 -8 130 -9 261 0 238 0 239 -23 258 -13 10 -47 26
-75 34 -70 21 -87 8 -127 -97 -34 -86 -80 -256 -80 -291 0 -11 -3 -17 -6 -14
-4 4 -10 84 -13 178 -7 171 -7 172 -34 195 -15 13 -45 28 -67 34 -71 19 -88
-1 -151 -185 l-37 -110 -1 131 c-1 92 -5 135 -13 142 -21 16 -111 32 -124 21
-8 -7 -13 -78 -16 -227 l-4 -217 -40 -69 c-72 -126 -123 -158 -161 -99 -16 24
-18 57 -20 293 0 146 -2 270 -2 277 -1 15 -56 33 -102 33 -33 0 -40 -4 -45
-25 l-6 -25 -24 25 c-70 76 -197 69 -267 -15 -66 -77 -107 -212 -107 -347 0
-63 -3 -73 -48 -148 -27 -45 -60 -86 -76 -95 -26 -14 -28 -14 -51 13 -13 15
-30 46 -36 70 -15 54 -5 252 15 327 20 72 20 134 0 154 -25 26 -56 28 -144 12
-45 -9 -85 -16 -89 -16 -4 0 -5 15 -3 34 3 28 -2 40 -23 62 -22 22 -32 25 -62
21 -45 -8 -80 -40 -93 -86 -14 -50 -13 -53 16 -96 l25 -38 -26 -86 c-32 -101
-93 -221 -142 -277 l-34 -39 5 273 5 273 -35 15 c-20 8 -55 14 -77 12 -35 -2
-43 -7 -45 -26 -3 -23 -4 -22 -39 8 -85 75 -178 67 -257 -20 -66 -73 -99 -169
-112 -324 -6 -77 -12 -98 -42 -150 -58 -102 -99 -134 -139 -108 -32 20 -37 66
-35 329 l2 263 -31 15 c-17 9 -48 15 -72 13 -35 -2 -43 -7 -45 -26 -3 -22 -5
-21 -44 12 -74 64 -161 61 -235 -7 -79 -73 -118 -178 -129 -346 -5 -83 -11
-104 -39 -156 -63 -114 -113 -135 -149 -60 -24 48 -31 218 -19 465 l8 165 105
5 c103 5 105 6 118 33 27 55 13 64 -108 72 l-110 7 0 102 c0 102 0 103 -27
115 -45 20 -124 26 -134 10 -5 -8 -9 -60 -9 -116 l0 -103 -89 0 -89 0 -11 -31
c-15 -45 -14 -76 5 -83 9 -3 51 -6 94 -6 l78 0 -5 -247 -4 -248 -35 -62 c-65
-117 -108 -148 -147 -105 -20 22 -77 146 -77 167 0 8 18 44 40 80 81 132 154
298 148 337 -2 17 -10 24 -31 26 -40 5 -51 -8 -82 -96 -31 -88 -105 -233 -116
-227 -8 5 -55 196 -67 270 -7 48 -9 50 -42 53 -24 2 -47 -4 -70 -20 -32 -22
-36 -31 -52 -108 -28 -137 -75 -257 -133 -346 -58 -86 -110 -130 -172 -144
-96 -22 -165 32 -191 148 l-9 40 38 5 c57 8 141 50 181 91 59 61 73 99 73 198
0 82 -2 88 -29 117 -16 17 -45 36 -64 42 -76 25 -188 -12 -246 -82 -61 -72
-105 -203 -106 -311 0 -50 -46 -142 -97 -193 -62 -62 -66 -36 -57 448 l7 418
-22 23 c-13 14 -46 34 -73 46 -50 22 -51 22 -76 3 -55 -41 -141 -241 -221
-513 -75 -255 -69 -266 -67 120 1 190 -2 357 -7 372 -8 26 -35 41 -92 53 -22
4 -47 -3 -91 -25z m1144 -452 c7 -7 12 -35 12 -63 0 -99 -73 -187 -167 -201
l-43 -7 0 50 c0 125 68 233 147 233 21 0 44 -5 51 -12z m1555 -29 c71 -32 96
-222 51 -389 -31 -111 -96 -171 -149 -136 -53 35 -81 149 -71 283 9 113 31
180 71 220 35 35 58 40 98 22z m790 -9 c38 -30 51 -82 51 -200 -1 -170 -44
-291 -113 -320 -58 -24 -100 25 -121 140 -25 133 12 314 75 369 41 36 72 39
108 11z m1321 -1 c42 -33 60 -113 53 -239 -6 -125 -27 -198 -69 -245 -54 -62
-101 -56 -140 18 -26 52 -37 232 -19 318 30 141 104 204 175 148z m-1264 -938
c-19 -112 -58 -161 -126 -161 -34 0 -74 42 -74 78 0 70 44 149 146 261 l59 65
3 -90 c2 -49 -2 -118 -8 -153z"/>
</g>
</svg>
